<?xml version="1.0" encoding="utf-8"?>
<!-- Generator: Adobe Illustrator 26.0.1, SVG Export Plug-In . SVG Version: 6.00 Build 0)  -->
<svg version="1.1" id="Livello_1" xmlns="http://www.w3.org/2000/svg" xmlns:xlink="http://www.w3.org/1999/xlink" x="0px" y="0px"
	 viewBox="0 0 839.04 87.7" style="enable-background:new 0 0 839.04 87.7;" xml:space="preserve">
<style type="text/css">
	.st0{fill-rule:evenodd;clip-rule:evenodd;}
	.st1{fill-rule:evenodd;clip-rule:evenodd;fill:#00B0ED;}
	.st2{fill:#00B0ED;}
</style>
<g>
	<g>
		<path class="st0" d="M68.93,83.3H54.61L71.1,17.35h22.56l16.49,65.95H95.84l-3.47-13.88H72.4L68.93,83.3z M82.38,29.48
			l-6.52,26.06H88.9L82.38,29.48z M153.24,83.3h-10.41l-13.02-43.57V83.3h-13.88V17.35h21.69l10.41,34.86l10.41-34.86h21.69V83.3
			h-13.88V39.73L153.24,83.3z M31.24,29.5c-5.94,0-11.14,3.21-13.94,8.05c-2.17,3.75-3.41,8.09-3.41,12.77s1.24,9.03,3.41,12.77
			c2.8,4.84,8.01,8.05,13.94,8.05c5.49,0,10.56-1.82,14.62-4.89l7.97,11.38c-6.33,4.65-14.14,7.4-22.59,7.4
			c-11.09,0-20.78-6.03-25.96-14.99C1.92,64.25,0,57.51,0,50.33s1.92-13.92,5.28-19.72c5.18-8.96,14.87-14.99,25.96-14.99
			c7.61,0,14.7,2.23,20.66,6.07L44.75,33.6C40.88,31.01,36.24,29.5,31.24,29.5z M230.82,31.24V17.35H190.9V83.3h39.92V69.42h-26.03
			V57.27h19.09V43.39h-19.09V31.24H230.82z"/>
	</g>
	<g>
		<rect x="298.51" y="17.35" class="st1" width="31.24" height="13.88"/>
		<rect x="281.15" y="34.71" class="st1" width="13.89" height="31.24"/>
		<rect x="298.51" y="52.06" class="st1" width="13.88" height="31.24"/>
		<path class="st1" d="M281.15,6.94c0-3.83,3.11-6.94,6.94-6.94c3.83,0,6.94,3.11,6.94,6.94s-3.11,6.94-6.94,6.94
			C284.26,13.88,281.15,10.78,281.15,6.94z"/>
		<rect x="263.8" y="17.35" class="st1" width="31.24" height="13.88"/>
	</g>
</g>
<g>
	<polygon class="st2" points="362.76,17.13 362.76,83.14 404.33,83.14 404.33,69.24 377.21,69.24 377.21,57.08 397.1,57.08 
		397.1,43.19 377.21,43.19 377.21,31.03 404.33,31.03 404.33,17.13 	"/>
	<polygon class="st2" points="455.42,17.13 455.42,57.51 429.2,17.13 415.65,17.13 415.65,83.14 430.11,83.14 430.11,42.75 
		456.32,83.14 469.87,83.14 469.87,17.13 	"/>
	<polygon class="st2" points="478.95,17.13 478.95,31.03 497.93,31.03 497.93,83.14 512.39,83.14 512.39,31.03 531.36,31.03 
		531.36,17.13 	"/>
	<path class="st2" d="M578.39,37.11c0-3.37-2.82-6.08-6.33-6.08H554.9v12.16h17.17C575.57,43.19,578.39,40.47,578.39,37.11
		 M554.9,57.08v26.05h-14.46v-66h31.63c11.53,0,20.79,8.9,20.79,19.98c0,8.25-4.63,14.76-12.2,17.8l15.82,28.23H580.2l-13.78-26.05
		L554.9,57.08L554.9,57.08z"/>
	<path class="st2" d="M613.66,50.13c0,11.61,6.21,20.84,18.08,20.84s18.07-9.23,18.07-20.84c0-11.62-6.77-20.84-18.07-20.84
		S613.66,38.52,613.66,50.13 M599.21,50.13c0-19.32,12.43-34.74,32.53-34.74c20.11,0,32.54,15.42,32.54,34.74
		s-13.33,34.74-32.54,34.74C612.54,84.87,599.21,69.46,599.21,50.13"/>
	<polygon class="st2" points="667.48,17.13 667.48,31.03 686.46,31.03 686.46,83.14 700.92,83.14 700.92,31.03 719.9,31.03 
		719.9,17.13 	"/>
	<polygon class="st2" points="728.97,17.13 728.97,83.14 770.54,83.14 770.54,69.24 743.43,69.24 743.43,57.08 763.31,57.08 
		763.31,43.19 743.43,43.19 743.43,31.03 770.54,31.03 770.54,17.13 	"/>
	<path class="st2" d="M790.9,50.13c0,11.07,6.21,20.84,18.08,20.84c5.65,0,11.07-1.85,15.25-4.99l8.25,11.51
		c-6.55,4.56-14.68,7.38-23.49,7.38c-19.21,0-32.53-14.66-32.53-34.74s12.31-34.74,32.53-34.74c7.9,0,15.36,2.17,21.46,6.08
		l-7.34,11.94c-4.07-2.6-8.93-4.12-14.12-4.12C797.67,29.29,790.9,39.06,790.9,50.13"/>
</g>
</svg>
