<?xml version="1.0" encoding="UTF-8"?>
<svg id="Layer_1" xmlns="http://www.w3.org/2000/svg" version="1.1" viewBox="0 0 593.08 299.08">
  <!-- Generator: Adobe Illustrator 30.5.0, SVG Export Plug-In . SVG Version: 2.1.4 Build 167)  -->
  <defs>
    <style>
      .st0 {
        fill: #fff;
      }
    </style>
  </defs>
  <g>
    <path d="M.96,268.53V87.06c0-9.23,1.46-18.32,4.35-27.02C13.83,34.29,34.29,13.83,60.04,5.31c8.68-2.89,17.77-4.35,27.02-4.35h505.05v189c0,8.82-1.46,17.5-4.35,25.8-7.84,22.48-25.94,40.58-48.44,48.42-8.26,2.89-16.94,4.35-25.79,4.35H.96ZM516.38,197.8h43.92l-74.38-64.55,69.76-60.04h-42l-47.96,42-47.63-42h-43.4l69.64,60.68-74.14,63.92h41.13l52.69-45.58,52.38,45.58ZM238.37,197.8h30.08v-36.73h62.63c34.94,0,56.65-16.61,56.65-43.34s-21.71-44.53-56.65-44.53h-78.51l-14.9,27.39h87c13.22,0,22.53,1.9,27.68,5.65,4.7,3.42,5.3,7.84,5.3,11.32,0,14.33-20.55,16.47-32.81,16.47h-56.39v-14.15h-30.08v77.93ZM190.85,197.8h35.91l-77.33-115.09c-3.94-6.04-10.05-9.51-16.77-9.51s-12.74,3.43-16.73,9.41l-78.48,115.18h35.68l59.24-87.67,16.95,24.58h-14.26l-18.03,26.85h49.05l24.77,36.24Z"/>
    <path class="st0" d="M591.16,1.92v188.04c0,8.71-1.44,17.29-4.29,25.48-3.82,10.96-10.21,21.11-18.47,29.37-8.26,8.26-18.42,14.64-29.38,18.46-8.16,2.85-16.73,4.3-25.47,4.3H1.92V87.06c0-9.13,1.45-18.12,4.3-26.72C14.65,34.88,34.88,14.65,60.34,6.22c8.58-2.85,17.57-4.3,26.72-4.3h504.1M465.72,113.93l-46.73-41.2-.54-.48h-46.32l3.86,3.36,66.87,58.27-71.35,61.51-3.91,3.37h44.07l.54-.47,51.79-44.8,51.48,44.79.54.47h46.84l-3.88-3.37-71.6-62.14,66.96-57.63,3.92-3.37h-44.95l-.54.47-47.05,41.2M236.06,101.55h88.61c13.01,0,22.13,1.84,27.12,5.46,3.39,2.47,4.9,5.72,4.9,10.54,0,13.49-19.95,15.51-31.85,15.51h-55.43v-14.15h-32v79.84h32v-36.73h61.67c17.28,0,31.76-4.07,41.88-11.78,10.29-7.83,15.72-19.07,15.72-32.53s-5.43-25.34-15.7-33.37c-10.13-7.92-24.62-12.11-41.9-12.11h-79.08l-.54,1-13.86,25.47-1.54,2.83M35.63,198.76h38l.57-.84,58.17-86.08,15.12,21.92h-12.94l-.57.85-16.74,24.93-2.01,2.99h50.35l24.19,35.4.57.84h38.21l-2.01-2.99-76.31-113.57c-4.13-6.33-10.53-9.95-17.58-9.95s-13.35,3.59-17.52,9.83l-77.46,113.69-2.04,3M593.08,0H87.06c-9.54,0-18.73,1.54-27.32,4.4C33.67,13.03,13.03,33.67,4.4,59.74c-2.85,8.59-4.4,17.78-4.4,27.32v182.42h513.55c9.14,0,17.93-1.55,26.1-4.4,22.89-7.97,41.05-26.12,49.03-49.01,2.84-8.19,4.4-16.97,4.4-26.11V0h0ZM465.71,116.48l48.32-42.31h39.06l-68.64,59.08,73.28,63.59h-40.99l-52.73-45.89-53.05,45.89h-38.19l73.02-62.96-68.54-59.72h40.48l47.99,42.31h0ZM239.28,99.64l13.86-25.47h77.94c34.34,0,55.69,16.68,55.69,43.57s-21.35,42.38-55.69,42.38h-63.59v36.73h-28.17v-76.01h28.17v14.15h57.35c12.61,0,33.77-2.26,33.77-17.43,0-8.35-3.87-17.93-33.94-17.93h-85.39ZM39.26,196.84l77.46-113.69c3.8-5.7,9.61-8.99,15.93-8.99s12.21,3.31,15.98,9.08l76.33,113.59h-33.6l-24.77-36.24h-47.76l16.74-24.93h15.57l-18.79-27.24-59.74,88.41h-33.36Z"/>
  </g>
  <polygon class="st0" points="557.73 196.84 516.74 196.84 464.01 150.96 410.95 196.84 372.76 196.84 445.79 133.89 377.25 74.17 417.72 74.17 465.71 116.48 514.04 74.17 553.1 74.17 484.45 133.25 557.73 196.84"/>
  <path class="st0" d="M386.77,117.73c0,26.15-21.35,42.38-55.69,42.38h-63.59v36.73h-28.17v-76.01h28.17v14.15h57.35c12.61,0,33.77-2.26,33.77-17.43,0-8.35-3.87-17.93-33.94-17.93h-85.39l13.86-25.47h77.94c34.34,0,55.69,16.68,55.69,43.57Z"/>
  <path class="st0" d="M224.95,196.84h-33.6l-24.77-36.24h-47.76l16.74-24.93h15.57l-18.79-27.24-59.74,88.41h-33.36l77.46-113.69c3.8-5.7,9.61-8.99,15.93-8.99s12.21,3.31,15.98,9.08l76.33,113.59Z"/>
  <g>
    <path d="M43.87,298.12v-27.12c0-16.62,13.52-30.15,30.15-30.15h475.18v27.12c0,16.62-13.52,30.15-30.15,30.15H43.87Z"/>
    <path class="st0" d="M548.24,241.81v26.16c0,16.09-13.09,29.19-29.19,29.19H44.83v-26.16c0-16.09,13.09-29.19,29.19-29.19h474.22M550.16,239.89H74.02c-17.15,0-31.11,13.95-31.11,31.11v28.08h476.14c17.15,0,31.11-13.95,31.11-31.11v-28.08h0Z"/>
  </g>
  <g>
    <path class="st0" d="M124.89,261.37v5.94h11.24v5.34h-11.24v10.33h-6.24v-26.95h19.07v5.34h-12.83Z"/>
    <path class="st0" d="M143.89,256.04h6.24v26.95h-6.24v-26.95Z"/>
    <path class="st0" d="M157.85,256.04h14.34c4.62,0,6.93,2.23,6.93,6.74v3.75c0,3.52-1.44,5.64-4.31,6.4l7.08,10.07h-7.3l-6.96-9.76h-3.52v9.76h-6.24v-26.95ZM170.34,267.88c1.89,0,2.54-.61,2.54-2.38v-1.74c0-1.78-.64-2.38-2.54-2.38h-6.24v6.51h6.24Z"/>
    <path class="st0" d="M193.89,261.37v5.15h11.24v5.34h-11.24v5.79h12.83v5.34h-19.07v-26.95h19.07v5.34h-12.83Z"/>
    <path class="st0" d="M222.57,276.63v-2.23c0-2.91.83-4.54,3.22-5.56-2.04-1.21-2.84-2.61-2.84-4.62v-1.82c0-4.5,2.31-6.74,6.96-6.74h7.68c4.65,0,6.96,2.23,6.96,6.7,0,.34,0,.38-.04.49l-6.21.76v-.26c0-1.74-.64-2.35-2.54-2.35h-4.01c-1.93,0-2.57.61-2.57,2.38v1.02c0,1.74.61,2.27,2.57,2.27h16.54v5.34h-3.6v4.65c0,4.47-2.31,6.7-6.93,6.7h-8.29c-4.62,0-6.93-2.23-6.93-6.74ZM231.35,278.03h4.58c1.89,0,2.54-.61,2.54-2.35v-3.67h-7.12c-1.93,0-2.54.57-2.54,2.35v1.29c0,1.78.64,2.38,2.54,2.38Z"/>
    <path class="st0" d="M264.06,276.66c0-.38,0-.42.04-.49l6.21-.76v.26c0,1.74.64,2.35,2.54,2.35h4.54c1.89,0,2.54-.61,2.54-2.38v-.68c0-1.48-.53-1.85-2.99-2.23l-6.28-.91c-4.69-.68-6.47-2.35-6.47-6.21v-3.22c0-4.5,2.31-6.74,6.96-6.74h7.95c4.65,0,6.96,2.23,6.96,6.7,0,.34,0,.38-.04.49l-6.21.76v-.26c0-1.74-.64-2.35-2.54-2.35h-4.24c-1.93,0-2.61.64-2.61,2.38v.57c0,1.51.45,1.82,3.03,2.2l6.28.91c4.73.68,6.43,2.35,6.43,6.28v3.29c0,4.5-2.31,6.74-6.93,6.74h-8.25c-4.62,0-6.93-2.23-6.93-6.7Z"/>
    <path class="st0" d="M299.52,261.37v5.15h11.24v5.34h-11.24v5.79h12.83v5.34h-19.07v-26.95h19.07v5.34h-12.83Z"/>
    <path class="st0" d="M318.14,276.63v-14.23c0-4.5,2.31-6.74,6.93-6.74h8.14c4.65,0,6.96,2.23,6.96,6.7,0,.27,0,.38-.04.49l-6.21.76v-.26c0-1.74-.64-2.35-2.54-2.35h-4.47c-1.89,0-2.54.61-2.54,2.38v12.26c0,1.78.64,2.38,2.54,2.38h4.47c1.89,0,2.54-.61,2.54-2.35v-.26l6.21.76c.04.11.04.23.04.49,0,4.47-2.31,6.7-6.96,6.7h-8.14c-4.62,0-6.93-2.23-6.93-6.74Z"/>
    <path class="st0" d="M361.59,283.36h-7.68c-4.62,0-6.93-2.23-6.93-6.74v-20.59h6.24v19.6c0,1.78.64,2.38,2.54,2.38h4.01c1.89,0,2.54-.61,2.54-2.38v-19.6h6.24v20.59c0,4.5-2.31,6.74-6.96,6.74Z"/>
    <path class="st0" d="M376.2,256.04h14.34c4.62,0,6.93,2.23,6.93,6.74v3.75c0,3.52-1.44,5.64-4.31,6.4l7.08,10.07h-7.3l-6.96-9.76h-3.52v9.76h-6.24v-26.95ZM388.69,267.88c1.89,0,2.54-.61,2.54-2.38v-1.74c0-1.78-.64-2.38-2.54-2.38h-6.24v6.51h6.24Z"/>
    <path class="st0" d="M405.99,256.04h6.24v26.95h-6.24v-26.95Z"/>
    <path class="st0" d="M425.89,261.37h-7.91v-5.34h22.06v5.34h-7.91v21.61h-6.24v-21.61Z"/>
    <path class="st0" d="M459.88,273.75v9.23h-6.28v-9.23l-9.76-17.71h6.93l6.02,10.97,5.94-10.97h6.93l-9.76,17.71Z"/>
  </g>
</svg>