<?xml version="1.0" encoding="UTF-8"?><svg id="Layer_1" xmlns="http://www.w3.org/2000/svg" viewBox="0 0 1080 1080"><defs><style>.cls-1{fill:#fff;}</style></defs><path class="cls-1" d="M542.07,247.26c-.93-.41-1.48-.59-2.07-.54-.59-.05-1.14.13-2.07.54l-256.33,113.45.14,113.74c.04,29.71,2.87,59.12,7.97,88.38,9.61,53.66,27.9,103.98,59.16,148.72,39.68,56.8,97.94,98.18,164.77,116.51,8.74,2.4,17.32,4.18,26.32,5.23h0s.03,0,.05,0c.02,0,.03,0,.05,0h0c8.99-1.06,17.58-2.84,26.32-5.24,66.83-18.33,125.09-59.71,164.77-116.51,31.26-44.75,49.55-95.06,59.16-148.72,5.1-29.25,7.93-58.67,7.97-88.38l.14-113.74-256.33-113.45ZM750.36,472.84c-.11,28.21-2.2,55.92-7.14,83.63-8.34,46.31-24.32,90.28-51.88,128.59-28.99,40.31-69.25,71.14-115.87,88.24-11.5,4.22-22.93,7.41-35.09,9.46-.07-.01-.13-.02-.2-.03v-.06c-.06.01-.13.02-.19.03-.06-.01-.13-.02-.19-.03v.06c-.07.01-.13.02-.2.03-12.16-2.05-23.59-5.25-35.09-9.46-46.62-17.1-86.87-47.92-115.87-88.24-27.55-38.31-43.54-82.28-51.88-128.59-4.94-27.71-7.03-55.42-7.14-83.63l-.07-80.03,208.87-92.41v.21s1.56-.69,1.56-.69l1.56.69v-.21s208.87,92.41,208.87,92.41l-.07,80.03Z"/><path class="cls-1" d="M440.49,513.78c-3.33-9.79-9.14-21.35-15.73-29.41-3.92-4.79-8.38-8.92-13.65-12.13-.87-.53-1.57-1.14-2.71-1.18,4.58,3.84,8.34,8.28,11.46,13.42,5.14,8.47,8.64,18.64,11.41,28.15l4,13.78c1.56,5.35,3.27,10.53,5.21,15.79,10.69,28.91,26.74,56.95,48.1,79.45-26.56,11.74-53.13,4.13-74.45-14.35-9.57-8.3-17.53-18.13-23.85-29.08-3.44-5.96-6.04-12.11-8.08-18.66-1.98-6.36-3.55-12.68-4.51-19.28l-2.55-17.58-2.77-21.09c-1.29-9.78-4.27-22.65-7.83-31.85-4.61-11.86-11.07-22.25-21.65-29.89,37.38-18.85,66.41-18.42,105.5-5.43,6.06,2.01,11.67,4.54,17.32,7.62,20.37,11.08,39.5,27.44,52.41,46.83,13.34,20.03,19.34,42.58,15.24,66.53-2.82,16.58-10.17,32.01-19.65,45.84,10.27,10.81,21.28,18.2,34.75,24.44.77.41,1.3,1.06,1.47,1.74.23.9.04,1.76-.55,2.51l-7.53,9.42c-.85,1.06-2.52,1.66-3.73.65l-21.19-17.72c-16.56-13.86-36.94-35.44-49.49-53.13-5.05-7.12-9.59-14.43-13.63-22.15-4.38-8.37-7.81-17.01-10.84-25.93l-2.48-7.29Z"/><path class="cls-1" d="M532.43,626.73c10.81-18.18,22.72-35.34,35.73-51.86,30.63-38.94,67.96-73.52,110.69-98.7.3-.18.21-.45-.15-.37-50.7,23.42-95.39,59.1-129.82,103.05-.05.61-.63.38-.32-.09-.36-50.44,21.85-98.35,65.8-124.9,8.19-4.95,16.84-9.11,25.85-12.42,27.22-10.01,57.07-12.52,85.78-9.02,3.18,23.14,3.37,46.3-.77,69.16-5.87,31.92-20.47,61.62-47,81.23-31.73,23.46-73.12,28.79-110.8,18.35-8.38,12.74-15.59,25.58-21.3,39.47-.93,1.59-2.85,2.16-4.42,1.18l-6.22-3.88c-3.56-2.23-5.46-7.15-3.06-11.18Z"/></svg>