<?xml version="1.0" encoding="UTF-8"?><svg id="Layer_1" xmlns="http://www.w3.org/2000/svg" viewBox="0 0 1080 1080"><defs><style>.cls-1{fill:#fff;}</style></defs><path class="cls-1" d="M542.07,247.26c-.93-.41-1.48-.59-2.07-.54-.59-.05-1.14.13-2.07.54l-256.33,113.45.14,113.74c.04,29.71,2.87,59.12,7.97,88.38,9.61,53.66,27.9,103.98,59.16,148.72,39.68,56.8,97.94,98.18,164.77,116.51,8.74,2.4,17.32,4.18,26.32,5.23h0s.03,0,.05,0c.02,0,.03,0,.05,0h0c8.99-1.06,17.58-2.84,26.32-5.24,66.83-18.33,125.09-59.71,164.77-116.51,31.26-44.75,49.55-95.06,59.16-148.72,5.1-29.25,7.93-58.67,7.97-88.38l.14-113.74-256.33-113.45ZM750.36,472.84c-.11,28.21-2.2,55.92-7.14,83.63-8.34,46.31-24.32,90.28-51.88,128.59-28.99,40.31-69.25,71.14-115.87,88.24-11.5,4.22-22.93,7.41-35.09,9.46-.07-.01-.13-.02-.2-.03v-.06c-.06.01-.13.02-.19.03-.06-.01-.13-.02-.19-.03v.06c-.07.01-.13.02-.2.03-12.16-2.05-23.59-5.25-35.09-9.46-46.62-17.1-86.87-47.92-115.87-88.24-27.55-38.31-43.54-82.28-51.88-128.59-4.94-27.71-7.03-55.42-7.14-83.63l-.07-80.03,208.87-92.41v.21s1.56-.69,1.56-.69l1.56.69v-.21s208.87,92.41,208.87,92.41l-.07,80.03Z"/><rect class="cls-1" x="495.28" y="393.16" width="89.44" height="307.07"/><rect class="cls-1" x="386.46" y="501.98" width="307.07" height="89.44"/></svg>