<?xml version="1.0" encoding="UTF-8"?><svg id="Layer_1" xmlns="http://www.w3.org/2000/svg" viewBox="0 0 1080 1080"><defs><style>.cls-1{fill:#fff;}</style></defs><g id="PnF9Bz"><path class="cls-1" d="M750.08,477.28l.04-39.33,48.04-74.61-.08,110.88c-.02,30.35-2.89,60.32-8.23,90.1-9.43,52.55-27.84,102.5-58.27,146.38-39.69,57.22-98.12,98.91-165.29,117.35-8.62,2.37-17.1,4.12-25.97,5.25-9.03-1.05-17.65-2.84-26.42-5.24-66.83-18.33-125.09-59.71-164.77-116.51-31.26-44.75-49.55-95.06-59.16-148.72-5.1-29.25-7.93-58.67-7.97-88.38l-.14-113.74,256.33-113.45c1.68-.74,2.12-.72,3.79.01l168.62,74.63c.41.18.51.34.54.46.06.25-.14.44-.47.76l-37.5,35.64-133.15-58.94-210.19,93,.07,80.03c.11,28.21,2.2,55.92,7.14,83.63,8.34,46.31,24.32,90.28,51.88,128.59,28.99,40.31,69.25,71.14,115.87,88.24,11.5,4.22,22.93,7.41,35.09,9.46,10.99-1.76,21.31-4.54,31.74-8.18,52.02-18.13,96.34-53.29,126.35-99.48,23.57-36.29,37.75-76.97,45.21-119.56,4.54-25.91,6.9-51.64,6.93-78.27Z"/><path class="cls-1" d="M379.2,476.68c-2.93-3.94-3.18-8.25-.38-11.99,2.4-3.2,7.15-5.14,11.34-3l145.11,74.03,233.32-221.9c3.37-3.2,8.7-2.26,11.81.34,3,2.51,4.98,7.57,2.46,11.49l-213.05,331.21c-5.94,9.23-16.4,14.55-26.88,15-10.86.47-21.81-4.11-28.48-13.09l-135.26-182.08Z"/></g></svg>