<?xml version="1.0" encoding="UTF-8"?><svg id="a" xmlns="http://www.w3.org/2000/svg" viewBox="0 0 160 80"><defs><style>.b{fill:#fff;}</style></defs><rect class="b" x="7.43" y="13.43" width="148.51" height="44.59"/><path d="M23.35,0c-2.56,0-5.02.41-7.33,1.18C9.03,3.49,3.5,9.03,1.18,16.02c-.77,2.3-1.18,4.77-1.18,7.33v48.92h138.68c2.45,0,4.81-.41,7-1.18,6.14-2.14,11.01-7,13.14-13.14.76-2.2,1.18-4.55,1.18-7V0H23.35ZM51.79,52.78l-6.64-9.72h-12.81l4.49-6.68h4.17l-5.04-7.3-16.02,23.71h-8.95l20.77-30.48c1.02-1.53,2.58-2.41,4.27-2.41s3.28.89,4.28,2.44l20.47,30.46h-9.01ZM72.21,42.93v9.85h-7.55v-20.38h7.55v3.79h15.38c3.38,0,9.05-.61,9.05-4.67,0-2.24-1.04-4.81-9.1-4.81h-22.9l3.72-6.83h20.9c9.21,0,14.93,4.47,14.93,11.68s-5.72,11.36-14.93,11.36h-17.05,0ZM139.05,52.78l-14.14-12.31-14.23,12.31h-10.24l19.58-16.88-18.38-16.01h10.85l12.87,11.34,12.96-11.34h10.47l-18.41,15.84,19.65,17.05h-10.99,0Z"/><path class="b" d="M12.28,79.87v-7.2c0-4.42,3.59-8.01,8.01-8.01h127.43v7.2c0,4.42-3.59,8.01-8.01,8.01H12.28Z"/><path d="M139.71,80H12.15v-7.33c0-4.49,3.65-8.14,8.14-8.14h127.56v7.33c0,4.49-3.65,8.14-8.14,8.14ZM12.41,79.73h127.3c4.34,0,7.88-3.53,7.88-7.88v-7.06H20.29c-4.34,0-7.88,3.53-7.88,7.88,0,0,0,7.06,0,7.06Z"/><path d="M33.94,70.09v1.59h3.02v1.43h-3.02v2.77h-1.67v-7.23h5.12v1.43h-3.45Z"/><path d="M39.04,68.66h1.67v7.23h-1.67v-7.23Z"/><path d="M42.79,68.66h3.85c1.24,0,1.86.6,1.86,1.81v1c0,.95-.38,1.51-1.16,1.72l1.9,2.7h-1.96l-1.87-2.62h-.95v2.62h-1.67v-7.23h0ZM46.14,71.83c.51,0,.68-.16.68-.64v-.47c0-.48-.17-.64-.68-.64h-1.67v1.75h1.67Z"/><path d="M52.45,70.09v1.38h3.02v1.43h-3.02v1.55h3.44v1.43h-5.12v-7.23h5.12v1.43h-3.44Z"/><path d="M60.15,74.18v-.6c0-.78.22-1.22.86-1.49-.55-.33-.76-.7-.76-1.24v-.49c0-1.21.62-1.81,1.87-1.81h2.06c1.25,0,1.87.6,1.87,1.8,0,.09,0,.1-.01.13l-1.67.2v-.07c0-.47-.17-.63-.68-.63h-1.08c-.52,0-.69.16-.69.64v.28c0,.47.16.61.69.61h4.44v1.43h-.96v1.25c0,1.2-.62,1.8-1.86,1.8h-2.22c-1.24,0-1.86-.6-1.86-1.81h0ZM62.51,74.55h1.23c.51,0,.68-.16.68-.63v-.99h-1.91c-.52,0-.68.15-.68.63v.34c0,.48.17.64.68.64h0Z"/><path d="M71.28,74.19c0-.1,0-.11.01-.13l1.67-.2v.07c0,.47.17.63.68.63h1.22c.51,0,.68-.16.68-.64v-.18c0-.4-.14-.5-.8-.6l-1.69-.24c-1.26-.18-1.74-.63-1.74-1.67v-.86c0-1.21.62-1.81,1.87-1.81h2.13c1.25,0,1.87.6,1.87,1.8,0,.09,0,.1-.01.13l-1.67.2v-.07c0-.47-.17-.63-.68-.63h-1.14c-.52,0-.7.17-.7.64v.15c0,.41.12.49.81.59l1.69.24c1.27.18,1.73.63,1.73,1.69v.88c0,1.21-.62,1.81-1.86,1.81h-2.21c-1.24,0-1.86-.6-1.86-1.8h0Z"/><path d="M80.8,70.09v1.38h3.02v1.43h-3.02v1.55h3.44v1.43h-5.12v-7.23h5.12v1.43h-3.44Z"/><path d="M85.8,74.18v-3.82c0-1.21.62-1.81,1.86-1.81h2.18c1.25,0,1.87.6,1.87,1.8,0,.07,0,.1-.01.13l-1.67.2v-.07c0-.47-.17-.63-.68-.63h-1.2c-.51,0-.68.16-.68.64v3.29c0,.48.17.64.68.64h1.2c.51,0,.68-.16.68-.63v-.07l1.67.2s.01.06.01.13c0,1.2-.62,1.8-1.87,1.8h-2.18c-1.24,0-1.86-.6-1.86-1.81h0Z"/><path d="M97.46,75.99h-2.06c-1.24,0-1.86-.6-1.86-1.81v-5.53h1.67v5.26c0,.48.17.64.68.64h1.08c.51,0,.68-.16.68-.64v-5.26h1.67v5.53c0,1.21-.62,1.81-1.87,1.81h0Z"/><path d="M101.38,68.66h3.85c1.24,0,1.86.6,1.86,1.81v1c0,.95-.38,1.51-1.16,1.72l1.9,2.7h-1.96l-1.87-2.62h-.95v2.62h-1.67v-7.23h0ZM104.73,71.83c.51,0,.68-.16.68-.64v-.47c0-.48-.17-.64-.68-.64h-1.67v1.75h1.67Z"/><path d="M109.37,68.66h1.67v7.23h-1.67v-7.23Z"/><path d="M114.71,70.09h-2.12v-1.43h5.92v1.43h-2.12v5.8h-1.67v-5.8Z"/><path d="M123.83,73.41v2.48h-1.69v-2.48l-2.62-4.75h1.86l1.62,2.95,1.59-2.95h1.86l-2.62,4.75h0Z"/></svg>