<?xml version="1.0"?>
<svg xmlns="http://www.w3.org/2000/svg" width="189.08916" height="27.840361" viewBox="0 0 50.029837 7.3660955">
  <g transform="translate(156.32771,-174.34532)">
    <g transform="translate(0.26458443,-0.26457785)" style="fill:#000;fill-rule:evenodd;stroke-width:0.26458332">
      <path
         d="m -126.82953,175.0701 h 2.98 c 1.5531,0 1.95236,0.99325 1.95236,1.66026 0,0.93001 -0.42836,1.19301 -0.69612,1.32451 0.77893,0.30188 1.06627,0.94932 1.06627,1.59226 0,0.51117 -0.21431,0.99774 -0.55033,1.33429 -0.3601,0.3601 -0.70591,0.58394 -2.00607,0.58394 h -2.74611 z m 1.3245,5.38004 h 1.63592 c 0.64294,0 1.01785,-0.2921 1.01785,-0.94933 0,-0.56938 -0.47731,-0.78396 -0.95911,-0.78396 h -1.69439 v 1.73329 z m 0,-2.84321 h 1.39727 c 0.52096,0 0.93477,-0.20929 0.93477,-0.72549 0,-0.53076 -0.36989,-0.69136 -0.96891,-0.69136 h -1.36313 z" />
      <path
         d="m -114.89048,174.88992 c -0.84243,0 -2.99428,0.36989 -2.99428,3.40836 0,0.93028 0.19949,1.60682 0.50165,2.10344 h -2.23997 v -5.32686 h -1.40229 v 6.48573 h 4.15317 v -0.55033 c 0.67706,0.58923 1.52426,0.70115 1.98172,0.70115 0.83767,0 2.99958,-0.36989 2.99958,-3.41339 0,-3.03795 -2.16191,-3.4081 -2.99958,-3.4081 z m 0,5.67769 c -0.71569,0 -1.66528,-0.45323 -1.66528,-2.26933 0,-1.81134 0.94959,-2.26404 1.66528,-2.26404 0.7157,0 1.66529,0.4527 1.66529,2.26404 0,1.8161 -0.94959,2.26933 -1.66529,2.26933 z" />
      <polygon
         transform="matrix(0.26458333,0,0,0.26458333,-157.07697,152.7935)"
         points="168.15,84.195 174.021,84.195 179.266,94.924 184.29,84.195 189.921,84.195 181.897,99.598 181.897,108.727 176.432,108.727 176.432,99.543 " />
      <path
         d="m -137.02552,175.0701 h -1.56792 l -1.81134,5.07841 c 0.0439,-0.17012 0.0632,-0.35507 0.0632,-0.55959 0,-1.09088 -0.81307,-1.49013 -1.69942,-1.70921 l -1.51447,-0.38947 c -0.26776,-0.0632 -0.64268,-0.20955 -0.64268,-0.71569 0,-0.58923 0.61357,-0.7792 1.12977,-0.7792 1.18825,0 1.2954,0.68659 1.32927,0.97869 l 1.30493,-0.0878 c -0.0291,-0.71093 -0.64268,-2.03041 -2.5318,-2.0111 -2.10847,0.0196 -2.49793,1.27582 -2.49793,1.99628 0,1.43166 1.11495,1.66529 2.02062,1.90897 l 0.62309,0.16537 c 0.69136,0.1606 1.17846,0.29712 1.17846,0.80354 0,0.68633 -0.71597,0.84243 -1.35864,0.84243 -1.02738,0 -1.28058,-0.69136 -1.29037,-1.05172 l -1.18322,0.0585 c 0,-0.005 0,-0.005 0,-0.01 0,-1.16866 -0.92048,-1.52902 -1.80657,-1.7481 l -1.52903,-0.38973 c -0.26776,-0.0632 -0.63791,-0.17039 -0.63791,-0.6768 0,-0.58923 0.54531,-0.7792 1.06151,-0.7792 1.18824,0 1.2954,0.68659 1.32926,0.97869 l 1.30493,-0.10239 c -0.0291,-0.71094 -0.60378,-2.01586 -2.5318,-1.99628 -2.10846,0.0148 -2.42967,1.27582 -2.42967,1.99628 0,1.43166 1.2319,1.67481 2.14736,1.92352 l 0.53552,0.14102 c 0.68659,0.16061 1.24169,0.30692 1.24169,0.81333 0,0.68633 -0.70115,0.84244 -1.34409,0.84244 -1.23666,0 -1.43642,-0.69665 -1.44621,-1.05675 l -1.25624,0.078 c 0,0.01 0,0.0243 0,0.0386 l -1.61158,-4.58655 h -1.56792 l -2.31299,6.49049 h 1.42664 l 0.45296,-1.33905 h 2.39554 l 0.41884,1.33905 h 1.47558 l -0.35057,-0.99324 c 0.37967,0.58446 1.13929,1.14935 2.47359,1.14935 0.49662,0 2.06454,-0.13124 2.4638,-1.44648 0.30188,0.66701 1.07606,1.44648 2.67335,1.44648 0.45746,0 1.83065,-0.11219 2.35664,-1.1684 l -0.36989,1.02208 h 1.43166 l 0.4527,-1.33905 h 2.39554 l 0.41884,1.33905 h 1.47531 z m -17.06165,4.02669 0.83264,-2.57095 h 0.0196 l 0.80327,2.57095 z m 15.42071,0.01 0.83264,-2.57095 h 0.0196 l 0.80354,2.57095 z" />
      <path
         d="m -131.73756,181.56086 h -1.42689 l 2.31298,-6.48573 h 1.56793 l 2.28838,6.48573 h -1.47532 l -0.41883,-1.33906 h -2.39554 z m 0.81783,-2.46407 h 1.65047 l -0.80327,-2.56592 h -0.0193 z" />
    </g>
  </g>
</svg>
