<?xml version="1.0" encoding="UTF-8"?> <!-- Generator: Adobe Illustrator 25.2.3, SVG Export Plug-In . SVG Version: 6.00 Build 0) --> <svg xmlns="http://www.w3.org/2000/svg" xmlns:xlink="http://www.w3.org/1999/xlink" version="1.1" id="Layer_1" x="0px" y="0px" viewBox="0 0 96.38 28.63" style="enable-background:new 0 0 96.38 28.63;" xml:space="preserve"> <style type="text/css"> .st0{fill:#6D6E71;} .st1{fill:#E43D30;} </style> <g> <path class="st0" d="M44.86,20.73c0,0.27-0.22,0.5-0.5,0.5H28.79V8.18h15.58c0.27,0,0.5,0.22,0.5,0.5V20.73z M44.86,4.31 L44.86,4.31h-16.8h-3.14h-9.97h-3.87h-6.1c-2.14,0-3.87,1.73-3.87,3.87h9.47c0.28,0,0.5,0.22,0.5,0.5V25.1h3.87V8.68 c0-0.27,0.22-0.5,0.5-0.5h9.47v13.05v3.87h3.14h16.8c2.14,0,3.87-1.73,3.87-3.87V8.18C48.73,6.04,47,4.31,44.86,4.31"></path> <path class="st0" d="M56.96,8.18H76.4c0-2.14-1.73-3.87-3.87-3.87H56.46c-2.14,0-3.87,1.73-3.87,3.87v4.59 c0,2.14,1.73,3.87,3.87,3.87h15.58c0.27,0,0.5,0.22,0.5,0.5v3.6c0,0.27-0.22,0.5-0.5,0.5H56.46c-2.14,0-3.87,1.73-3.87,3.87h19.94 c2.14,0,3.87-1.73,3.87-3.87v-4.59c0-2.14-1.73-3.87-3.87-3.87H56.96c-0.28,0-0.5-0.22-0.5-0.5v-3.6 C56.46,8.4,56.69,8.18,56.96,8.18"></path> <path class="st0" d="M79.66,25.1c2.14,0,3.87-1.73,3.87-3.87v-8.46h-3.87V25.1z"></path> <path class="st1" d="M79.66,8.18V8.2h3.87V4.31C81.39,4.31,79.66,6.04,79.66,8.18"></path> <path class="st0" d="M88.46,7.18c0.14,0.18,0.34,0.27,0.58,0.27s0.44-0.09,0.58-0.27c0.14-0.18,0.21-0.42,0.21-0.73V4.31h0.86v2.16 c0,0.56-0.16,0.99-0.47,1.29c-0.31,0.3-0.7,0.45-1.19,0.45c-0.48,0-0.88-0.15-1.19-0.45c-0.31-0.3-0.47-0.73-0.47-1.29V4.31h0.86 v2.13C88.25,6.75,88.32,7,88.46,7.18"></path> <path class="st0" d="M91.59,4.31h0.86V5.9l1.46-1.59h1.07l-1.54,1.71c0.13,0.18,0.38,0.53,0.74,1.03c0.36,0.5,0.62,0.88,0.8,1.13 h-1.01l-1.13-1.53l-0.39,0.43v1.09h-0.86V4.31z"></path> </g> </svg> 